<svg xmlns="http://www.w3.org/2000/svg" xmlns:xlink="http://www.w3.org/1999/xlink" width="430" height="241.875" viewBox="0 0 430 241.875">
  <defs>
    <linearGradient id="linear-gradient" x1="0.5" y1="0.994" x2="0.5" y2="0.012" gradientUnits="objectBoundingBox">
      <stop offset="0" stop-color="#2c7eb7"/>
      <stop offset="1" stop-color="#53bde6"/>
    </linearGradient>
    <clipPath id="clip-Plan_de_travail_1">
      <rect width="430" height="241.875"/>
    </clipPath>
  </defs>
  <g id="Plan_de_travail_1" data-name="Plan de travail 1" clip-path="url(#clip-Plan_de_travail_1)">
    <rect width="430" height="241.875" fill="#fff"/>
    <rect id="Rectangle_14" data-name="Rectangle 14" width="436.643" height="246.375" transform="translate(-5 -4.5)" fill="#fff" opacity="0.998"/>
    <g id="Groupe_36" data-name="Groupe 36" transform="translate(-1392.841 -1433.235)">
      <g id="Groupe_35" data-name="Groupe 35" transform="translate(1519.148 1526.599)">
        <g id="Groupe_34" data-name="Groupe 34" transform="translate(0 0)">
          <path id="Tracé_104" data-name="Tracé 104" d="M1887.586,1612.979a6.807,6.807,0,0,0-6.844,6.844,5.607,5.607,0,0,0,3.09,5.15,55.258,55.258,0,0,0,8.007,2.691q5.681,1.695,8.306,4.087,3.92,3.555,3.921,10a15.145,15.145,0,0,1-15.085,15.084h-12.659a4.086,4.086,0,0,1-4.02-4.02v-.2a4.085,4.085,0,0,1,4.02-4.02h12.991a6.675,6.675,0,0,0,4.851-1.994,6.6,6.6,0,0,0,1.994-4.851,5.773,5.773,0,0,0-3.09-5.183,53.3,53.3,0,0,0-8.041-2.924q-5.682-1.861-8.273-4.22a12.256,12.256,0,0,1-3.921-9.6,15.088,15.088,0,0,1,15.085-15.084h8.938a3.9,3.9,0,0,1,2.858,1.2,3.845,3.845,0,0,1,1.163,2.824v.2a4.027,4.027,0,0,1-4.02,4.02Z" transform="translate(-1872.302 -1604.739)" fill="#002a3c"/>
          <path id="Tracé_105" data-name="Tracé 105" d="M2045.021,1605.638a4.027,4.027,0,0,1,4.02,4.02v23.025h1.262a10.756,10.756,0,0,0,7.41-2.824,10.649,10.649,0,0,0,3.521-6.977,3.963,3.963,0,0,1,1.33-2.558,3.789,3.789,0,0,1,2.691-1.063h.1a3.82,3.82,0,0,1,2.957,1.329,3.867,3.867,0,0,1,1.063,2.691,3.135,3.135,0,0,1-.033.432q-.8,8.34-6.379,12.493a16.6,16.6,0,0,1,5.382,6.08,18.709,18.709,0,0,1,2.559,9.536v1.694a3.723,3.723,0,0,1-1.2,2.824,3.862,3.862,0,0,1-2.824,1.2h-.1a3.863,3.863,0,0,1-2.824-1.2,3.724,3.724,0,0,1-1.2-2.824v-1.694a10.947,10.947,0,0,0-11-10.931h-2.725v12.626a3.724,3.724,0,0,1-1.2,2.824,3.863,3.863,0,0,1-2.824,1.2h-.1a3.862,3.862,0,0,1-2.824-1.2,3.723,3.723,0,0,1-1.2-2.824v-43.858a4.027,4.027,0,0,1,4.02-4.02Z" transform="translate(-2003.489 -1605.438)" fill="#002a3c"/>
          <path id="Tracé_106" data-name="Tracé 106" d="M2209.7,1688.525a7.885,7.885,0,0,0,7.941,7.941,7.941,7.941,0,0,0,7.907-7.941v-17.444a4.085,4.085,0,0,1,4.054-4.054h.067a3.724,3.724,0,0,1,2.824,1.2,3.9,3.9,0,0,1,1.2,2.857v31.8a16.525,16.525,0,0,1-16.048,16.081,17.261,17.261,0,0,1-9.071-2.459,15.733,15.733,0,0,1-6.047-6.413,3.862,3.862,0,0,1-.465-1.794,3.8,3.8,0,0,1,.333-1.529,3.679,3.679,0,0,1,2.326-2.293l.133-.066a4.69,4.69,0,0,1,1.428-.233,3.865,3.865,0,0,1,3.489,2.16,8.1,8.1,0,0,0,3.19,3.223,9.119,9.119,0,0,0,4.685,1.263,8.057,8.057,0,0,0,7.907-7.941v-.266q-2.625,1.96-7.907,1.96a16.109,16.109,0,0,1-16.082-16.048v-17.444a4.085,4.085,0,0,1,4.02-4.054h.1a3.862,3.862,0,0,1,2.824,1.2,3.9,3.9,0,0,1,1.2,2.857Z" transform="translate(-2128.501 -1653.206)" fill="#002a3c"/>
          <path id="Tracé_107" data-name="Tracé 107" d="M2385.94,1653.516a3.724,3.724,0,0,1-1.2,2.824,3.863,3.863,0,0,1-2.824,1.2h-.1a3.862,3.862,0,0,1-2.824-1.2,3.724,3.724,0,0,1-1.2-2.824v-31.9a15.995,15.995,0,0,1,15.981-15.981q7.907,0,11.928,5.25,3.987-5.25,11.895-5.25a15.995,15.995,0,0,1,15.981,15.981v31.9a3.845,3.845,0,0,1-1.163,2.824,3.9,3.9,0,0,1-2.857,1.2h-.067a4.086,4.086,0,0,1-4.02-4.02v-31.9a7.858,7.858,0,1,0-15.716,0v31.9a4.086,4.086,0,0,1-4.021,4.02h-.066a3.9,3.9,0,0,1-2.857-1.2,3.723,3.723,0,0,1-1.2-2.824v-31.9a7.841,7.841,0,1,0-15.682,0Z" transform="translate(-2265.63 -1605.438)" fill="#002a3c"/>
          <path id="Tracé_108" data-name="Tracé 108" d="M2693.306,1672.643a18.434,18.434,0,0,1,5.615,13.523v15.118a3.723,3.723,0,0,1-1.2,2.824,3.863,3.863,0,0,1-2.824,1.2h-.1a3.862,3.862,0,0,1-2.824-1.2,3.724,3.724,0,0,1-1.2-2.824q-3.788,4.02-11,4.02a19.138,19.138,0,1,1,13.523-32.661Zm-21.331,5.748a11.03,11.03,0,1,0,7.808-3.223A10.652,10.652,0,0,0,2671.975,1678.391Z" transform="translate(-2485.711 -1653.206)" fill="#002a3c"/>
          <path id="Tracé_109" data-name="Tracé 109" d="M2867.2,1605.638a4.027,4.027,0,0,1,4.02,4.02v9.6h4.984a4.085,4.085,0,0,1,4.021,4.054v.066a3.724,3.724,0,0,1-1.2,2.824,3.863,3.863,0,0,1-2.824,1.2h-4.984v19.7a2.212,2.212,0,0,0,.665,1.628,2.253,2.253,0,0,0,1.661.665h2.658a4.085,4.085,0,0,1,4.021,4.053v.067a3.724,3.724,0,0,1-1.2,2.824,3.863,3.863,0,0,1-2.824,1.2h-2.658a10.437,10.437,0,0,1-10.466-10.433v-37.445a4.027,4.027,0,0,1,4.021-4.02Z" transform="translate(-2643.229 -1605.438)" fill="#002a3c"/>
          <path id="Tracé_110" data-name="Tracé 110" d="M2993.332,1678.192a3.8,3.8,0,0,1,.133,3.09,3.818,3.818,0,0,1-2.126,2.259q-4.652,2.093-12.227,5.515-9.4,4.253-11.031,5.017,2.525,3.19,7.875,3.19a10.732,10.732,0,0,0,6.446-2.093,10.849,10.849,0,0,0,3.954-5.316,3.755,3.755,0,0,1,3.854-2.724,3.842,3.842,0,0,1,3.29,1.728,3.759,3.759,0,0,1,.764,2.226,4.164,4.164,0,0,1-.266,1.428,18.31,18.31,0,0,1-6.878,9.171,19.106,19.106,0,1,1,6.213-23.491Zm-17.377-2.957a10.947,10.947,0,0,0-11,11.031v.232l18.573-8.34Q2981.071,1675.235,2975.955,1675.235Z" transform="translate(-2716.163 -1653.206)" fill="#002a3c"/>
        </g>
      </g>
      <path id="Tracé_111" data-name="Tracé 111" d="M1560.142,1910.643a17.876,17.876,0,0,0,5.174,5.1A31.965,31.965,0,0,1,1560.142,1910.643Z" transform="translate(-110.263 -316.164)" fill="url(#linear-gradient)"/>
      <path id="Tracé_112" data-name="Tracé 112" d="M1506.673,1517.865l-.043-3.914-3.893.426a40.7,40.7,0,0,1-4.556.245c-16.616,0-33.527-9.147-33.7-9.241l-1.9-1.067-1.946,1.067c-.165.094-17.077,9.241-33.7,9.241a40.8,40.8,0,0,1-4.556-.245l-3.891-.426-.043,3.914c-.045,4.275.171,8.521.339,12.79.165,4.289.339,8.664,1.781,12.745a21.621,21.621,0,0,0,11.368,12.4,20.374,20.374,0,0,0,8.737,1.74l-.828-2.794.306-.2,3.145-2.113,4.348,3.121a.727.727,0,0,0,.42.094,2.516,2.516,0,0,0,.263-.017l.116-.014a7.75,7.75,0,0,0,1.014-.231l.141-.043c.057-.016.112-.033.169-.051s.1-.031.149-.047c.151-.049.308-.1.467-.155,1.862-1.2,4.179-2.768,6.388-4.5l.008-.006c.524-.445,1.051-.9,1.583-1.344.021-.018.043-.035.063-.053a32.357,32.357,0,0,1,2.739-2.861c.265-.243.543-.492.832-.738.071-.061.145-.122.218-.183s.149-.123.224-.184c.186-.153.377-.3.573-.453l.2-.147.159-.118.241-.171c.161-.114.324-.226.487-.334.084-.055.165-.108.249-.161s.167-.1.251-.155.167-.1.253-.151q.379-.223.767-.416h0q.382-.193.775-.353c.088-.035.173-.067.261-.1a6.752,6.752,0,0,1,2.344-.463,4.741,4.741,0,0,1,.991.1c.065.014.128.028.194.045.13.035.259.073.385.12,0,0,.343-.126.883-.314a33.581,33.581,0,0,1,5.97-1.623c.049,0,.1-.006.147-.006a2.376,2.376,0,0,1,.618.086l-2.955-2.647v-.663l3.781,2.743.379.881-1.205-.314a3.549,3.549,0,0,1,1.024.484,3.023,3.023,0,0,1,.557-.143c.037-.006.077-.012.118-.016s.082-.01.122-.014c.114-.01.237-.016.367-.016a4.5,4.5,0,0,1,.844.084,2.179,2.179,0,0,1-.4,1.122l.646.326.734.743,2.07,2.094v.347l-2.545-2.027-.906-.722a1.42,1.42,0,0,1,.19,1.189c-.043.086-.08.171-.112.255a3.517,3.517,0,0,1-1.711,2.268l-.015.167,0,.025,17.364,10.389a1.063,1.063,0,0,1,.1,1.758l-3.006,2.284a1.063,1.063,0,0,1-.642.218,1.047,1.047,0,0,1-.375-.069l-14.213-5.36-2.692-1.016a1.106,1.106,0,0,1-.169-.081l-3.587-2.14s-1.073.451-2.792,1.114l1.144,1.144,2.378,2.376a3,3,0,0,1,.7-.508l1.062.473a1.819,1.819,0,0,1-1.324,2.527l-.991-.424a1.847,1.847,0,0,1,.014-1.293l-2.786-2.784-1.148-1.148c-1.988.754-4.587,1.691-7.328,2.553-5.861,1.844-10.067,3.214-10.067,3.214l4.819,4.255-3.449,2.362-4.905-2.115a24.87,24.87,0,0,0-3.765,10.75c-.846,8.344,2.912,15,6.376,19.239a31.957,31.957,0,0,0,5.174,5.1c.014.008.024.018.035.024.224.145.455.282.677.426,1.666,1.059,3.3,2.068,4.923,3.021l1.868.979,1.874-.979C1493.712,1587.682,1507.134,1560.613,1506.673,1517.865Zm-37.686,22.843a5.92,5.92,0,0,0-.6.028c-2.464.21-5.231,1.719-8.238,4.493-.108.1-.214.2-.318.3l-1.187-.708-7.936-4.73a1.04,1.04,0,0,1-.177-.135l-.475-.441-10.848-10.075a1.062,1.062,0,0,1,.2-1.707l3.575-1.993a1.063,1.063,0,0,1,1.063.016l24.627,14.731.367.22Z" transform="translate(0 0)" fill="#72c9c5"/>
    </g>
  </g>
</svg>
