<svg xmlns="http://www.w3.org/2000/svg" xmlns:xlink="http://www.w3.org/1999/xlink" width="430" height="241.875" viewBox="0 0 430 241.875">
  <defs>
    <linearGradient id="linear-gradient" x1="0.5" y1="0.994" x2="0.5" y2="0.012" gradientUnits="objectBoundingBox">
      <stop offset="0" stop-color="#2c7eb7"/>
      <stop offset="1" stop-color="#53bde6"/>
    </linearGradient>
    <clipPath id="clip-Plan_de_travail_1_copie">
      <rect width="430" height="241.875"/>
    </clipPath>
  </defs>
  <g id="Plan_de_travail_1_copie" data-name="Plan de travail 1 copie" clip-path="url(#clip-Plan_de_travail_1_copie)">
    <rect width="430" height="241.875" fill="#fff"/>
    <rect id="Rectangle_13" data-name="Rectangle 13" width="435" height="245.448" transform="translate(-5 -4.5)" fill="none"/>
    <g id="Groupe_33" data-name="Groupe 33" transform="translate(-1391.975 -2626.007)">
      <g id="Groupe_32" data-name="Groupe 32" transform="translate(1518.687 2719.497)">
        <g id="Groupe_31" data-name="Groupe 31" transform="translate(0 0)">
          <path id="Tracé_95" data-name="Tracé 95" d="M1887.516,2805.941a6.776,6.776,0,0,0-6.813,6.813,5.582,5.582,0,0,0,3.076,5.127,55.079,55.079,0,0,0,7.971,2.679q5.656,1.687,8.269,4.068,3.9,3.539,3.9,9.955a15.075,15.075,0,0,1-15.015,15.016h-12.6a4.067,4.067,0,0,1-4-4v-.2a4.067,4.067,0,0,1,4-4h12.932a6.645,6.645,0,0,0,4.829-1.984,6.573,6.573,0,0,0,1.984-4.829,5.746,5.746,0,0,0-3.076-5.159,53.027,53.027,0,0,0-8-2.911q-5.656-1.852-8.235-4.2a12.2,12.2,0,0,1-3.9-9.558,15.019,15.019,0,0,1,15.016-15.016h8.9a3.882,3.882,0,0,1,2.844,1.191,3.827,3.827,0,0,1,1.158,2.811v.2a4.009,4.009,0,0,1-4,4Z" transform="translate(-1872.302 -2797.739)" fill="#fff"/>
          <path id="Tracé_96" data-name="Tracé 96" d="M2045,2798.638a4.008,4.008,0,0,1,4,4v22.92h1.257a10.847,10.847,0,0,0,10.881-9.757,3.944,3.944,0,0,1,1.323-2.547,3.774,3.774,0,0,1,2.679-1.058h.1a3.8,3.8,0,0,1,2.944,1.323,3.848,3.848,0,0,1,1.058,2.679,3.109,3.109,0,0,1-.033.43q-.794,8.3-6.35,12.436a16.521,16.521,0,0,1,5.358,6.052,18.624,18.624,0,0,1,2.547,9.492v1.687a3.706,3.706,0,0,1-1.191,2.811,3.844,3.844,0,0,1-2.811,1.191h-.1a3.845,3.845,0,0,1-2.812-1.191,3.707,3.707,0,0,1-1.19-2.811v-1.687a10.9,10.9,0,0,0-10.948-10.882H2049V2846.3a3.707,3.707,0,0,1-1.19,2.811A3.845,3.845,0,0,1,2045,2850.3h-.1a3.843,3.843,0,0,1-2.811-1.191,3.707,3.707,0,0,1-1.191-2.811V2802.64a4.009,4.009,0,0,1,4-4Z" transform="translate(-2003.66 -2798.439)" fill="#fff"/>
          <path id="Tracé_97" data-name="Tracé 97" d="M2209.667,2881.427a7.848,7.848,0,0,0,7.9,7.9,7.9,7.9,0,0,0,7.872-7.9v-17.364a4.066,4.066,0,0,1,4.035-4.035h.066a3.706,3.706,0,0,1,2.812,1.191,3.882,3.882,0,0,1,1.191,2.844v31.652a16.449,16.449,0,0,1-15.975,16.008,17.18,17.18,0,0,1-9.029-2.448,15.663,15.663,0,0,1-6.019-6.383,3.847,3.847,0,0,1-.463-1.786,3.787,3.787,0,0,1,.331-1.521,3.662,3.662,0,0,1,2.315-2.282l.132-.066a4.676,4.676,0,0,1,1.422-.231,3.848,3.848,0,0,1,3.473,2.149,8.072,8.072,0,0,0,3.175,3.208,9.078,9.078,0,0,0,4.663,1.257,7.576,7.576,0,0,0,5.49-2.315,7.653,7.653,0,0,0,2.381-5.59v-.265q-2.613,1.952-7.872,1.951a16.035,16.035,0,0,1-16.008-15.974v-17.364a4.067,4.067,0,0,1,4-4.035h.1a4.067,4.067,0,0,1,4,4.035Z" transform="translate(-2128.834 -2846.269)" fill="#fff"/>
          <path id="Tracé_98" data-name="Tracé 98" d="M2385.9,2846.3a3.706,3.706,0,0,1-1.19,2.811,3.845,3.845,0,0,1-2.811,1.191h-.1a3.843,3.843,0,0,1-2.811-1.191,3.706,3.706,0,0,1-1.191-2.811v-31.751a15.922,15.922,0,0,1,15.908-15.908q7.871,0,11.874,5.226,3.969-5.226,11.84-5.226a15.922,15.922,0,0,1,15.909,15.908V2846.3a3.827,3.827,0,0,1-1.158,2.811,3.881,3.881,0,0,1-2.844,1.191h-.066a4.067,4.067,0,0,1-4-4v-31.751a7.822,7.822,0,1,0-15.644,0V2846.3a4.067,4.067,0,0,1-4,4h-.066a3.881,3.881,0,0,1-2.844-1.191,3.707,3.707,0,0,1-1.191-2.811v-31.751a7.806,7.806,0,1,0-15.611,0Z" transform="translate(-2266.143 -2798.439)" fill="#fff"/>
          <path id="Tracé_99" data-name="Tracé 99" d="M2693.157,2865.618a18.35,18.35,0,0,1,5.589,13.461v15.049a3.706,3.706,0,0,1-1.19,2.811,3.845,3.845,0,0,1-2.811,1.191h-.1a3.844,3.844,0,0,1-2.811-1.191,3.706,3.706,0,0,1-1.191-2.811q-3.771,4-10.947,4a19.051,19.051,0,1,1,13.461-32.512Zm-21.233,5.722a10.979,10.979,0,1,0,7.772-3.208A10.6,10.6,0,0,0,2671.923,2871.339Z" transform="translate(-2486.511 -2846.269)" fill="#fff"/>
          <path id="Tracé_100" data-name="Tracé 100" d="M2867.185,2798.638a4.009,4.009,0,0,1,4,4v9.558h4.961a4.066,4.066,0,0,1,4,4.035v.066a3.708,3.708,0,0,1-1.19,2.812,3.847,3.847,0,0,1-2.812,1.19h-4.961v19.613a2.2,2.2,0,0,0,.661,1.621,2.243,2.243,0,0,0,1.654.662h2.646a4.066,4.066,0,0,1,4,4.035v.066a3.708,3.708,0,0,1-1.19,2.811,3.845,3.845,0,0,1-2.812,1.191H2873.5a10.389,10.389,0,0,1-10.418-10.385V2802.64a4.009,4.009,0,0,1,4-4Z" transform="translate(-2644.234 -2798.439)" fill="#fff"/>
          <path id="Tracé_101" data-name="Tracé 101" d="M2993.165,2871.141a3.78,3.78,0,0,1,.132,3.076,3.8,3.8,0,0,1-2.117,2.249q-4.631,2.083-12.171,5.49-9.36,4.233-10.981,4.994,2.513,3.175,7.839,3.175a10.681,10.681,0,0,0,6.416-2.084,10.8,10.8,0,0,0,3.936-5.292,3.739,3.739,0,0,1,3.837-2.712,3.825,3.825,0,0,1,3.274,1.72,3.74,3.74,0,0,1,.761,2.216,4.148,4.148,0,0,1-.265,1.422,18.229,18.229,0,0,1-6.846,9.129,19.019,19.019,0,1,1,6.185-23.383Zm-17.3-2.944a10.9,10.9,0,0,0-10.948,10.981v.231l18.488-8.3Q2980.96,2868.2,2975.868,2868.2Z" transform="translate(-2717.262 -2846.269)" fill="#fff"/>
        </g>
      </g>
      <path id="Tracé_102" data-name="Tracé 102" d="M1560.142,3103.643a17.794,17.794,0,0,0,5.151,5.077A31.809,31.809,0,0,1,1560.142,3103.643Z" transform="translate(-110.406 -316.576)" fill="url(#linear-gradient)"/>
      <path id="Tracé_103" data-name="Tracé 103" d="M1506.27,2710.8l-.043-3.9-3.876.424a40.568,40.568,0,0,1-4.536.244c-16.54,0-33.374-9.105-33.547-9.2l-1.894-1.062-1.937,1.062c-.164.094-17,9.2-33.547,9.2a40.671,40.671,0,0,1-4.536-.244l-3.874-.424-.043,3.9c-.045,4.256.171,8.482.337,12.732.164,4.269.337,8.624,1.772,12.687a21.523,21.523,0,0,0,11.316,12.341,20.275,20.275,0,0,0,8.7,1.732l-.824-2.781.3-.2,3.13-2.1,4.328,3.106a.723.723,0,0,0,.418.094,2.493,2.493,0,0,0,.262-.017c.036,0,.075-.008.115-.014a7.7,7.7,0,0,0,1.009-.229l.14-.043c.057-.016.112-.032.168-.051s.1-.031.148-.047c.15-.049.307-.1.465-.155,1.854-1.191,4.16-2.755,6.359-4.482l.008-.006c.522-.443,1.046-.892,1.576-1.338.02-.018.042-.034.063-.053a32.234,32.234,0,0,1,2.726-2.848c.264-.242.54-.489.828-.735.071-.061.144-.122.217-.183s.148-.122.223-.183c.185-.152.375-.3.57-.451l.2-.146.158-.118c.079-.057.158-.114.24-.17.16-.114.323-.226.485-.333.083-.055.164-.108.248-.16s.167-.1.25-.154.167-.1.252-.15q.378-.223.763-.414h0q.381-.192.771-.351c.087-.034.172-.067.26-.1a6.72,6.72,0,0,1,2.333-.461,4.73,4.73,0,0,1,.987.1c.065.014.128.028.193.045.13.035.258.073.384.12,0,0,.341-.126.879-.312a33.449,33.449,0,0,1,5.942-1.616c.049,0,.1-.006.146-.006a2.369,2.369,0,0,1,.615.085l-2.942-2.635v-.66l3.764,2.73.378.877-1.2-.313a3.544,3.544,0,0,1,1.019.481,3.007,3.007,0,0,1,.554-.142c.036-.006.077-.012.118-.016s.081-.01.122-.014c.114-.01.236-.016.365-.016a4.471,4.471,0,0,1,.841.083,2.169,2.169,0,0,1-.394,1.117l.644.325.731.739,2.061,2.085v.345l-2.533-2.018-.9-.719a1.412,1.412,0,0,1,.189,1.183c-.043.085-.079.171-.112.254a3.5,3.5,0,0,1-1.7,2.258l-.014.166,0,.024,17.285,10.342a1.058,1.058,0,0,1,.1,1.75l-2.993,2.274a1.057,1.057,0,0,1-.64.217,1.047,1.047,0,0,1-.374-.069l-14.148-5.335-2.68-1.011a1.048,1.048,0,0,1-.169-.081l-3.571-2.13s-1.068.449-2.779,1.109l1.139,1.139,2.367,2.365a2.973,2.973,0,0,1,.7-.505l1.058.471a1.811,1.811,0,0,1-1.318,2.516l-.987-.422a1.84,1.84,0,0,1,.014-1.287l-2.773-2.771-1.143-1.143c-1.979.751-4.566,1.683-7.295,2.542-5.835,1.835-10.021,3.2-10.021,3.2l4.8,4.235-3.433,2.351-4.883-2.1a24.751,24.751,0,0,0-3.748,10.7c-.843,8.306,2.9,14.932,6.347,19.151a31.8,31.8,0,0,0,5.151,5.077c.014.008.024.018.034.024.223.144.453.28.674.424,1.659,1.054,3.287,2.059,4.9,3.007l1.86.975,1.866-.975C1493.368,2780.3,1506.729,2753.356,1506.27,2710.8Zm-37.514,22.738a5.938,5.938,0,0,0-.6.028c-2.453.209-5.207,1.711-8.2,4.473-.108.1-.213.2-.317.3l-1.181-.7-7.9-4.708a1.046,1.046,0,0,1-.177-.134l-.473-.438-10.8-10.029a1.057,1.057,0,0,1,.2-1.7l3.559-1.983a1.059,1.059,0,0,1,1.058.016l24.514,14.664.365.219Z" fill="#72c9c5"/>
    </g>
  </g>
</svg>
